<?xml version="1.0" encoding="utf-8"?>
<!-- Generator: Adobe Illustrator 20.1.0, SVG Export Plug-In . SVG Version: 6.00 Build 0)  -->
<svg version="1.1" id="레이어_1" xmlns="http://www.w3.org/2000/svg" xmlns:xlink="http://www.w3.org/1999/xlink" x="0px"
	 y="0px" viewBox="0 0 83 24.7" style="enable-background:new 0 0 83 24.7;" xml:space="preserve">
<style type="text/css">
	.st0{fill:#FFFFFF;}
</style>
<g>
	<path class="st0" d="M15.9,13.3c0,1.3-0.3,2.5-0.8,3.6c-0.5,1.2-1.3,2.1-2.2,2.7c-0.3,0.2-0.7,0.5-1.3,0.9c-0.6,0.3-1.3,0.5-2,0.6
		c-0.3,0.1-0.9,0.1-1.7,0.1c-3.1,0-5.4-1-6.8-3.1C1,18,0.8,17.7,0.7,17.2c-0.1-0.1-0.2-0.3-0.3-0.5c-0.2-1.1-0.3-1.7-0.3-1.8v-3.6
		c0-0.1,0.1-0.1,0.2-0.1c0,0,0.1,0.1,0.4,0.2c-0.1-0.1-0.2-0.2-0.4-0.2c0,0,0-0.1,0-0.2c0-0.1,0-0.1,0-0.2h0.4c0.1,0,0.1,0,0.1,0.1
		C0.8,11,0.9,11,0.9,11c0.2,0,0.3-0.1,0.5-0.2c0.1,0.1,0.2,0.2,0.3,0.3c0.1,0,0.2-0.1,0.2-0.2c0.1,0.1,0.3,0.2,0.5,0.5
		c0.1-0.1,0.2-0.3,0.3-0.5l-0.2-0.2c-0.1,0.1-0.2,0.1-0.3,0.1c0.1,0,0.1-0.1,0.1-0.2c0.2,0,0.3,0.1,0.3,0.2c0,0.1,0.1,0.3,0.1,0.4
		c0,0,0,0,0.1-0.1c0-0.1,0.1-0.1,0.1-0.1c0.1,0,0.1,0,0.1,0c0,0,0,0,0.1,0c0.2,0,0.2-0.1,0.1-0.2c0,0,0.1,0,0.2,0c0.1,0,0.2,0,0.2,0
		c0.1,0,0.1,0,0.1-0.1c0-0.1,0.1-0.1,0.1-0.1c0.1,0,0.2,0,0.3-0.1c-0.1,0-0.2-0.1-0.4-0.2c-0.1,0.1-0.2,0.2-0.2,0.2
		c0-0.2,0-0.2-0.1-0.2c-0.1,0-0.1,0-0.1,0c0,0-0.1,0-0.2,0c-0.1,0-0.3-0.1-0.7-0.2c-0.4-0.1-0.7-0.2-0.7-0.2c-0.1,0-0.2,0.1-0.3,0.2
		c-0.1,0.2-0.2,0.2-0.2,0.3c0.1,0,0.2,0.1,0.3,0.2c-0.1-0.1-0.3-0.1-0.4-0.1c-0.1-0.2,0-0.3,0.1-0.4c0,0-0.2-0.1-0.6-0.3
		c-0.1,0.1-0.1,0.2,0.1,0.2c0,0-0.1,0-0.1-0.1s-0.1-0.1-0.1-0.1c0,0,0,0.1,0,0.2c0,0.1,0,0.2,0,0.2c0,0-0.1-0.1-0.2-0.2
		c0-0.1,0-0.2,0-0.3c0-0.1-0.1-0.2-0.1-0.3C0,9.7,0,9.5,0,9.2V0.1h5.3v6.4c0.3,0,0.5,0,0.9-0.1C6.7,6.3,7,6.2,7.1,6.2
		c1-0.2,2-0.2,3-0.2c0.3,0,1.1,0.3,2.3,0.8c1.2,0.5,2.1,1.5,2.7,2.9C15.6,10.8,15.9,12,15.9,13.3z M0.4,13.1
		c-0.1,0.1-0.2,0.2-0.3,0.2c0.1,0,0.1,0.1,0.2,0.1c0,0,0-0.1,0.1-0.1C0.4,13.2,0.4,13.1,0.4,13.1z M0.6,12.4H0.4l-0.1,0.4h0.1
		L0.6,12.4z M0.9,10.5c-0.1,0-0.2,0-0.3,0.1c0.1,0.1,0.1,0.1,0.1,0.2l-0.3-0.2c0.1,0,0.2-0.1,0.2-0.2L0.9,10.5z M1,11.3
		c-0.1-0.1-0.1-0.1-0.1-0.2l-0.2,0.2H1z M1,13.3L1,13.3l-0.2,0.1l0.1,0.1L1,13.3z M1.7,17.9H1.4c0,0,0.1,0.1,0.2,0.2
		C1.6,18,1.7,17.9,1.7,17.9z M2.1,13.2C2.1,13.1,2,13,2,13c0,0,0,0.1-0.1,0.1c0,0.1-0.1,0.1-0.1,0.1H2.1z M2.2,10.5L2,10.8l-0.1-0.1
		L2.2,10.5L2.2,10.5z M3.3,16.2L3.3,16.2l-0.2,0.1l0.1,0L3.3,16.2z M5.2,11.4c-0.8-0.2-1.4-0.3-1.7-0.3c-0.1,0.1-0.2,0.2-0.2,0.3
		h0.3c0-0.1,0-0.1,0.1-0.1C3.9,11.4,4,11.5,4,11.6c0.2,0,0.2-0.1,0.2-0.2c-0.1,0-0.2,0-0.2,0c0.1,0,0.2-0.1,0.4-0.1
		c0.2,0.2,0.2,0.3,0.2,0.4c0,0.1,0,0.1-0.1,0.2c0,0-0.1,0.1-0.1,0.1c0,0,0.1-0.1,0.2-0.2c0,0.1,0,0.1,0,0.2c0,0.1-0.1,0.2-0.1,0.2
		C4.8,12,4.9,12,4.9,12c-0.1,0-0.1-0.2-0.1-0.4c0.1,0.1,0.1,0.1,0.1,0.1c0-0.2,0-0.3,0-0.3c0.1,0,0.1,0,0.1,0.1L5.2,11.4z M3.7,12.1
		c-0.1,0-0.2-0.1-0.2-0.2c0,0-0.1,0-0.2,0.2C3.6,12.1,3.7,12.1,3.7,12.1z M3.9,16.2L3.7,16l-0.1,0.1L3.9,16.2L3.9,16.2z M3.9,11.6
		v-0.1H3.6v0.1H3.9z M4.2,12v-0.1H4V12H4.2z M4.7,10.9v-0.1H4.4v0.1H4.7z M5,12.5v-0.1H4.8v0.1H5z M10.8,13.5c0-0.3-0.1-0.6-0.2-1
		c-0.3-0.9-1-1.5-2.1-1.6c0,0-0.1,0-0.2-0.1c-0.1,0-0.1-0.1-0.2-0.1c-0.3,0-0.8,0.1-1.3,0.4c-0.4,0.2-0.7,0.4-1.1,0.5
		c0,0.1,0,0.3-0.2,0.6c0,0.2-0.1,0.4-0.2,0.8c0,0-0.1,0-0.1,0.1c-0.1,0-0.1,0.1-0.1,0.1c0.1,0.2,0.3,0.6,0.3,1.3
		c0.2,0.3,0.5,0.7,1.1,1C7.2,15.8,7.6,16,8,16h0.5c0.1,0,0.2,0,0.3-0.1c0.2,0,0.4-0.1,0.6-0.1c0.2-0.1,0.5-0.2,0.7-0.5
		c0.2-0.3,0.4-0.5,0.4-0.7C10.7,14.1,10.8,13.8,10.8,13.5z M5.5,11.7l-0.1-0.1l-0.1,0.1L5.5,11.7L5.5,11.7z M6.4,15.9L6.4,15.9
		L6.2,16l0.1,0.1L6.4,15.9z M11.1,17.1v-0.1h-0.2v0.1H11.1z M11.7,17.6h-0.2c0,0-0.1,0.1-0.1,0.2C11.6,17.7,11.7,17.6,11.7,17.6z
		 M14.5,13c0,0,0,0-0.2,0c-0.1,0-0.3,0-0.5,0v0.2c0.3,0,0.5,0,0.6,0.1C14.4,13.1,14.4,13.1,14.5,13z M14.7,13.5
		c-0.1-0.1-0.1-0.2-0.1-0.3l-0.2,0.2C14.4,13.4,14.5,13.5,14.7,13.5z M15.5,13.7c-0.1-0.2-0.2-0.2-0.3-0.2v0.2H15.5z"/>
	<path class="st0" d="M31.7,6.3c-0.1,0.3-0.2,0.6-0.2,0.8c-0.5,1.7-0.9,2.7-1,3.2c-0.1,0.1-0.1,0.2-0.3,0.3c0.1,0,0.1,0,0.1,0
		c-1.1,3.6-2,6.5-2.6,8.6c-0.1,0.2-0.3,0.3-0.4,0.4c0,0.3,0,0.5,0,0.6c-0.3,1-0.5,1.7-0.7,2.1c-0.5,0.9-1,1.6-1.4,2.3
		c-0.1,0.1-0.3,0.1-0.5,0.1h-5.4c0.5-0.8,0.9-1.6,1.3-2.2c0.4-1.1,0.5-1.6,0.5-1.5c0,0.2-0.6-1.3-1.8-4.5l-3.2-8.2
		c-0.1-0.2-0.1-0.5-0.2-0.8c-0.3-0.6-0.5-1.1-0.7-1.4c1-0.1,1.9-0.1,2.7-0.1c0,0,0.1,0,0.1,0.1c0.1,0,0.1,0.1,0.2,0.1
		c0,0,0,0,0.2-0.1c0.3,0,0.8,0,1.5-0.1c0.6,0,1.1-0.1,1.5-0.1c1.1,2.5,1.9,4.5,2.4,5.8c0,0,0.1,0,0.1-0.1c0.2-0.3,0.3-0.9,0.5-1.7
		c0.5-1.8,0.9-3.1,1.2-4h6.1V6C31.9,6.1,31.8,6.2,31.7,6.3z M27.6,17.6c-0.1,0-0.1,0.1-0.1,0.3c0.1,0,0.1,0,0.2-0.1
		C27.7,17.7,27.7,17.7,27.6,17.6z M28.7,6.7c-0.1,0-0.1,0-0.2,0V6.4c0.2,0,0.3,0,0.3-0.1v0.3C28.8,6.6,28.8,6.6,28.7,6.7z M28.6,6.8
		C28.8,6.7,29,6.6,29,6.6c0,0,0.1,0.1,0.1,0.3C28.8,6.8,28.6,6.8,28.6,6.8z M28.8,7.5V7.4l0.3,0.1v0.1L28.8,7.5z M29.3,7.1l-0.1,0
		l0.1-0.2l0.1,0L29.3,7.1z M29.8,6.4c-0.1,0.1-0.1,0.1-0.1,0.2c0,0-0.1,0-0.2-0.1s-0.2-0.1-0.2-0.1c0.3-0.1,0.5-0.2,0.7-0.2
		C29.9,6.3,29.8,6.4,29.8,6.4z M29.4,8.3L29.4,8.3l0.1-0.3l0.1,0.1L29.4,8.3z M29.8,7.2L29.7,7L29.8,7L29.8,7.2L29.8,7.2z"/>
	<path class="st0" d="M47,21c-0.6,0.3-1,0.4-1.3,0.4c-0.1,0-0.5,0-1.4-0.1c-0.9,0-1.4-0.1-1.4-0.1c-0.5,0-1.6-0.3-3.3-0.8
		c-1.8-0.6-3.3-1.8-4.5-3.7c-0.9-1.4-1.4-2.6-1.5-3.6c0-0.2-0.1-0.6-0.2-1.1c0-0.7,0-1.2,0-1.5c0-0.3,0-0.5,0-0.4
		c0-0.9,0.2-2,0.6-3.2c0.1-0.3,0.3-0.8,0.5-1.4c0.4-0.8,0.9-1.4,1.4-1.9C36,3.4,36.4,3,36.9,2.4c0.2-0.2,0.4-0.4,0.7-0.5
		c1.8-1.2,3.6-1.8,5.4-1.8c0.6,0,1.7,0.1,3.4,0.3l0.2,4.2c0,0.4-0.1,0.9-0.2,1.7c-0.3-0.1-0.7-0.2-1.3-0.4c-0.8-0.2-1.4-0.2-1.9-0.2
		c0,0-0.1,0-0.2,0.1c-1,0-2,0.6-3.1,1.8c-0.2,0.2-0.4,0.7-0.7,1.3c0,0.1-0.1,0.1-0.2,0.3c-0.1,0.7-0.2,1.2-0.2,1.5
		c0,0.3,0.1,0.9,0.4,1.7c0.2,0.7,0.4,1.1,0.5,1.2c0.3,0.3,0.7,0.6,1.3,1.1c0.1,0,0.2,0.1,0.4,0.2c0,0,0,0.1-0.1,0.1
		c-0.1,0-0.1,0.1-0.1,0.1c0,0,0,0.1,0,0.1c0,0,0.1-0.1,0.2-0.1c0.1-0.1,0.2-0.1,0.2-0.1c-0.1,0,0.3,0.1,1,0.4c0,0.1,0,0.1,0,0.2
		c-0.2,0.1-0.4,0.2-0.4,0.5v0.2c0,0-0.1-0.1-0.2-0.2c-0.1,0.1-0.3,0.2-0.5,0.3c0.1,0.1,0.2,0.1,0.3,0.1v0.2c-0.1,0-0.1,0.1-0.2,0.2
		v-0.2c-0.1,0-0.1,0-0.2,0.1c0.1,0.1,0.1,0.2,0.1,0.3c0,0,0-0.1-0.1-0.1L41.4,17c0,0.1,0.1,0.2,0.2,0.3c0,0,0.1,0,0.1,0
		c0,0,0,0,0,0.1c0,0-0.1,0.1-0.2,0.2c0,0.1,0.1,0.1,0.3,0.2v0.4c0,0,0,0-0.1-0.1c0-0.1-0.1-0.1-0.2-0.1c-0.1,0-0.1,0-0.1,0
		c0,0,0,0-0.1,0l-0.1-0.1c-0.1,0.1-0.2,0.3-0.5,0.6V19c0.1-0.1,0.2-0.1,0.2,0c0-0.1,0.1-0.2,0.1-0.4c0.1-0.1,0.2-0.2,0.3-0.2
		c0,0.1,0,0.1-0.1,0.3c0,0.1-0.1,0.2-0.1,0.3c0.1,0,0.2,0.1,0.4,0.3c0.1,0,0.2-0.1,0.2-0.2c0-0.1,0.1-0.1,0.1-0.1
		c0,0-0.1,0.1-0.1,0.3c0,0.3,0.1,0.4,0.3,0.4c0.1,0,0.2,0,0.4,0c0,0.1,0,0.2,0,0.3c0,0.1,0.1,0.3,0.2,0.4c0.1-0.1,0.2-0.1,0.4-0.2
		l-0.1-0.4c0,0,0,0.1-0.2,0.2v-0.3c0.2,0.1,0.3,0.2,0.4,0.3c0,0.1,0,0.2-0.1,0.3c0,0,0.1,0.1,0.2,0.1c0.1-0.1,0.2-0.2,0.3-0.2
		c-0.1-0.1-0.1-0.3-0.3-0.5c0,0,0.1,0,0.2,0.1c0.2-0.1,0.3-0.2,0.3-0.4c0,0.1,0,0.1,0,0.3c0,0.1,0,0.2,0,0.2c0,0,0.1,0,0.1,0
		c0,0,0.1,0,0.1-0.1c0,0,0,0.2,0,0.4c0.2,0,0.2-0.1,0.2-0.3c0,0,0.1,0,0.1,0c0.1,0,0.1,0,0.2,0c0-0.1-0.1-0.2-0.2-0.2
		c0.2,0,0.3,0,0.4-0.1c0,0.1,0,0.2,0.1,0.3c0-0.1,0.1-0.2,0.2-0.3c0,0,0.1,0.1,0.1,0.1c0.1,0,0.1,0,0.1,0.1c0.3-0.3,0.6-0.4,0.8-0.4
		c0.1,0,0.1,0,0.1,0.1c0,0,0,0.1,0,0.1l0.4-0.4c-0.1-0.1-0.2-0.2-0.4-0.3c0,0,0.1,0,0.2,0l0.2-0.2c0,0.1,0,0.1-0.1,0.2
		c0.1,0,0.3,0.1,0.7,0.2v0.4c-0.4,0.1-0.9,0.3-1.6,0.5c0.1,0.1,0.1,0.2,0.2,0.4c0.1-0.1,0.1-0.2,0.2-0.3c0.3-0.1,0.7-0.2,1.2-0.3
		c0,0.1,0,0.3,0,0.6C46.9,20.7,47,20.9,47,21z M37.9,3.2l-0.1,0l-0.1,0.2l0.1,0L37.9,3.2z M38.3,14.1V14h-0.2v0.1H38.3z M38.5,14.7
		l-0.2,0.2c0,0.1,0.1,0.1,0.1,0.2C38.5,15,38.5,14.9,38.5,14.7z M38.6,15.8v-0.2h-0.1v0.2H38.6z M39.1,9.1c0,0-0.1-0.1-0.2-0.2
		c0,0.1-0.1,0.1-0.2,0.1c0,0,0.1,0.1,0.2,0.2C38.9,9.1,39,9.1,39.1,9.1z M39.5,17.3l-0.1-0.2c0,0-0.1,0-0.2,0.1
		c0.1,0.1,0.2,0.2,0.2,0.3C39.4,17.3,39.5,17.3,39.5,17.3z M39.7,15.8c-0.1,0-0.2,0.1-0.4,0.2c0.1,0,0.2,0.1,0.3,0.1
		C39.5,16,39.5,15.9,39.7,15.8z M39.5,17.1v-0.3h-0.1v0.3H39.5z M40.5,16.8c-0.2,0.1-0.4,0.2-0.6,0.3c-0.2,0.3-0.3,0.6-0.3,1
		c0,0,0.1,0.1,0.2,0.2l0.2-0.2c0.1,0,0.1,0.1,0.2,0.1c-0.1-0.1-0.1-0.1-0.2-0.2c0-0.1,0-0.1,0-0.2c0-0.1-0.1-0.2-0.1-0.2l0.1,0.1
		c0.1,0,0.1,0.1,0.1,0.2l0.1-0.1c0,0,0-0.1-0.1-0.2c0-0.2,0.1-0.3,0.2-0.5C40.4,17,40.4,16.9,40.5,16.8z M39.8,16.8v-0.3h-0.1v0.3
		H39.8z M40.3,16.3l-0.3-0.1c0,0.1,0,0.2-0.1,0.3l0.1,0.1C40,16.5,40.1,16.4,40.3,16.3z M40.2,15.8v-0.3H40v0.3H40.2z M40.4,18.7
		c-0.2,0-0.3,0.1-0.3,0.3c0,0.2,0.1,0.2,0.2,0.2C40.4,18.9,40.5,18.8,40.4,18.7z M40.4,15.5l-0.1,0l-0.1,0.2l0.1,0L40.4,15.5z
		 M41.2,15.3c0-0.1-0.1-0.2-0.2-0.3c-0.1,0.1-0.2,0.3-0.3,0.5c-0.2,0.1-0.3,0.2-0.4,0.3v0.4c0.1,0,0.1,0,0.2-0.1
		c0.4-0.4,0.6-0.6,0.7-0.5c0,0,0-0.1,0-0.1C41.2,15.5,41.2,15.4,41.2,15.3z M41.6,15.9c0-0.1-0.1-0.2-0.2-0.4
		c-0.1,0.1-0.2,0.3-0.4,0.4c0,0.1,0,0.3-0.1,0.6c-0.2,0-0.3,0.1-0.5,0.3c0.2-0.2,0.4-0.3,0.5-0.3c0.1,0,0.2,0,0.2,0.1
		c0-0.1,0-0.2,0.1-0.2c0.1,0.1,0.2,0.3,0.4,0.4c-0.2-0.5-0.3-0.7-0.3-0.6c0-0.1,0-0.1,0.1-0.2c0,0,0,0-0.1-0.1C41.1,16,41,16,41,16
		c0,0,0,0,0.1-0.1c0,0,0.1,0,0.1-0.1C41.4,15.9,41.5,16,41.6,15.9z M41.4,17.1c0-0.1-0.1-0.1-0.1-0.2c-0.1,0-0.1,0.1-0.2,0.2
		c-0.1,0.1-0.2,0.2-0.2,0.2c-0.1,0-0.1,0-0.1-0.1c0.1-0.2,0.2-0.3,0.3-0.4v-0.3c-0.3,0.4-0.5,0.6-0.5,0.6l-0.2-0.1v1
		c0.3,0,0.5-0.1,0.6-0.3c0-0.1-0.1-0.1-0.2-0.2l-0.1,0.1c0,0-0.1-0.1-0.2-0.1c0.1-0.1,0.1-0.2,0.3-0.4c0,0.1,0.1,0.2,0.2,0.2
		C41,17.5,41.2,17.3,41.4,17.1z M41.1,17.8L41.1,17.8l-0.2,0.1l0.1,0.1L41.1,17.8z M41.4,16.2c0,0-0.1,0-0.2,0.1
		c0,0.1,0.1,0.1,0.1,0.2c0,0,0-0.1,0-0.1C41.4,16.2,41.4,16.2,41.4,16.2z M41.6,15.4l0-0.1l-0.1,0.1l0.1,0.1L41.6,15.4z M42.4,18.5
		c0,0,0,0.1-0.1,0.3c-0.1,0-0.2,0-0.3-0.1L41.6,19c0.1-0.1,0.2-0.3,0.3-0.5l0.2,0.2C42.2,18.6,42.3,18.5,42.4,18.5z M42.1,15.9v-0.4
		c-0.2,0.2-0.3,0.3-0.3,0.4H42.1z M42.8,16.1c-0.1,0.1-0.1,0.3-0.1,0.4c0.1,0.1,0.1,0.2,0.1,0.2c-0.1,0.1-0.3,0.3-0.5,0.6h-0.2
		c0.1-0.2,0.3-0.4,0.6-0.7c0-0.1,0-0.2-0.1-0.2c-0.1,0-0.1,0-0.1,0c0,0,0,0-0.1,0C42.5,16.4,42.6,16.3,42.8,16.1z M42.4,18.3h-0.3
		l0.2-0.2C42.3,18.1,42.3,18.2,42.4,18.3z M42.4,17.5l-0.1,0.2l-0.1-0.1l0.1-0.2L42.4,17.5z M42.3,19.4L42.3,19.4l-0.2,0l0.1-0.1
		L42.3,19.4z M42.6,19.2l-0.2,0.3l-0.2-0.2c0,0,0.1,0,0.2,0C42.6,19.2,42.6,19.2,42.6,19.2z M42.6,18.6l-0.1,0.3l-0.1-0.1l0.1-0.2
		H42.6z M42.9,17.9L42.8,18L42.7,18l0.1-0.2L42.9,17.9z M43.8,15.5l-0.1,0.5c0-0.1,0-0.1-0.1-0.1c-0.1,0-0.2,0.1-0.3,0.3
		c-0.1-0.1-0.1-0.2-0.2-0.3C43,16,42.9,16,42.8,16c0-0.1,0-0.1-0.1-0.1c0.1-0.1,0.2-0.1,0.3-0.2C43,15.6,43,15.6,43,15.5
		c0.1,0,0.2,0,0.3,0.1c0.1,0.1,0.2,0.1,0.3,0.1C43.7,15.7,43.7,15.6,43.8,15.5z M43.5,16.5c-0.1,0.2-0.2,0.3-0.3,0.4
		c0,0,0-0.1,0.1-0.1c0-0.1,0.1-0.1,0.1-0.2c0-0.2-0.1-0.3-0.3-0.4l0.1,0C43.1,16.4,43.3,16.5,43.5,16.5z M43.7,19.3c0,0-0.1,0-0.1,0
		c-0.1,0-0.2,0.1-0.2,0.1c-0.1,0-0.1,0-0.1,0.1c0,0.1-0.1,0.1-0.1,0.1c0-0.3,0-0.4,0-0.4c0.1,0,0.2-0.1,0.3-0.2
		c0.1,0,0.2,0.1,0.3,0.2c-0.1,0-0.1,0-0.2-0.1c-0.1,0.1-0.1,0.1-0.1,0.1C43.4,19.2,43.5,19.2,43.7,19.3z M43.5,17.2l-0.3,0.2
		l-0.1-0.1l0.3-0.2L43.5,17.2z M43.4,5V4.9h-0.3V5H43.4z M43.5,15.8l0-0.1l-0.2,0.1v0.1L43.5,15.8z M43.5,18.5h-0.1l-0.1-0.2
		l0.1-0.1L43.5,18.5z M43.9,20.6c-0.1,0-0.3-0.1-0.4-0.2c0,0.1-0.1,0.3-0.2,0.4c0,0,0.1,0,0.1,0.1c0.1,0.1,0.1,0.1,0.2,0.1
		C43.8,20.8,43.9,20.7,43.9,20.6z M43.7,17.4c0,0.2,0,0.3-0.1,0.3c-0.1,0-0.2,0-0.3-0.1C43.5,17.6,43.6,17.5,43.7,17.4z M44.1,4.5
		c-0.2,0-0.4,0.2-0.6,0.4h0.3C44,4.7,44.1,4.6,44.1,4.5z M44,4.9c-0.2,0.1-0.3,0.2-0.3,0.3c0.2,0,0.3,0,0.3,0.1L44,4.9z M44.2,18.4
		c-0.2,0.2-0.3,0.4-0.3,0.4c0,0,0.1,0,0.2,0c0.1,0.1,0.1,0.2,0,0.3C44,19.1,43.9,19,43.8,19v-0.3C43.9,18.6,44,18.5,44.2,18.4z
		 M45,17.7c-0.1,0-0.1,0.1-0.2,0.3v0.2c0,0,0,0-0.1-0.1c0-0.1-0.1-0.1-0.1-0.1c-0.1,0,0,0.2,0,0.4l-0.3-0.1c0,0,0.1,0,0.2-0.2
		c0,0,0-0.1,0-0.3c0.1,0,0.1,0,0.2,0.1c0-0.1,0-0.3-0.1-0.6c-0.1,0.1-0.3,0.3-0.5,0.5c0-0.1,0.1-0.2,0.1-0.2c0-0.1-0.1-0.1-0.2-0.1
		v-0.6c0.1,0,0.1,0,0.2,0.1c0.2-0.2,0.5-0.4,0.8-0.6c-0.1,0.1-0.2,0.2-0.2,0.2c-0.1,0.1-0.1,0.1-0.1,0.1l0.1,0.1
		c0,0.2,0.1,0.4,0.4,0.4c0,0.1-0.1,0.2-0.2,0.3C44.8,17.6,44.9,17.7,45,17.7z M44.5,20.6l-0.1-0.2c-0.2,0.1-0.3,0.2-0.4,0.2
		c0,0,0.1,0.1,0.2,0.2C44.3,20.7,44.4,20.7,44.5,20.6z M44.3,4.8L44.3,4.8l-0.2,0.1L44.2,5L44.3,4.8z M44.9,19h-0.1l-0.1-0.2l0.1,0
		L44.9,19z M45.1,20.2H45l-0.1,0.3l0.1,0L45.1,20.2z M45.2,16.1c0,0.1,0,0.2-0.1,0.3c0,0-0.1-0.1-0.1-0.2c0,0,0.1,0,0.1,0
		C45.2,16.1,45.2,16.1,45.2,16.1z M45.2,18.8L45.2,18.8l-0.2,0l0.1-0.1L45.2,18.8z M45.6,18l-0.1,0.3c0-0.1,0-0.1-0.1-0.2
		c-0.1,0.1-0.1,0.1-0.2,0.3v-0.3C45.3,18.1,45.5,18,45.6,18z M45.5,16.8c-0.1,0-0.1,0.1-0.2,0.2v-0.5C45.3,16.5,45.4,16.6,45.5,16.8
		z M45.4,16.2h-0.1V16h0.1V16.2z M45.5,18.5l-0.2,0.2l-0.1-0.1L45.5,18.5L45.5,18.5z M45.7,17.4c-0.1-0.1-0.2-0.1-0.4-0.1
		c0.1-0.1,0.2-0.2,0.3-0.3L45.7,17.4z M45.9,19.2l-0.4,0.3l-0.1-0.1l0.4-0.3L45.9,19.2z M45.7,18c-0.1-0.1-0.2-0.2-0.2-0.2
		c0,0,0-0.1,0.1-0.2c0-0.1,0.1-0.1,0.1-0.1C45.7,17.8,45.7,17.9,45.7,18z M46.6,15.9c0,0.1,0,0.1-0.1,0.2c-0.1,0.1-0.1,0.1-0.1,0.1
		c0,0,0-0.1-0.1-0.2c-0.1,0.1-0.1,0.2-0.1,0.2c0-0.1-0.1-0.1-0.2-0.1c0.2-0.1,0.3-0.2,0.4-0.3c0,0-0.1,0-0.2,0c-0.1,0-0.2,0-0.2,0
		c0,0.1-0.1,0.2-0.2,0.4c0-0.1,0-0.2-0.1-0.2c0,0,0,0-0.1,0c0,0-0.1-0.1-0.1-0.1c0.2-0.1,0.4-0.3,0.4-0.4l-0.1-0.1h-0.4
		c0.2-0.2,0.3-0.3,0.4-0.3c0.1,0,0.1,0,0.1,0.1c0,0,0,0.1,0,0.1c0.1,0,0.3-0.1,0.6-0.4c0.1,0.1,0.1,0.2,0.1,0.3
		c0,0.3-0.1,0.5-0.4,0.5c0,0,0.1,0.1,0.3,0.1C46.6,15.8,46.6,15.9,46.6,15.9z M46.2,17.7c-0.1,0.1-0.1,0.3-0.2,0.5
		c-0.1,0-0.2,0.1-0.3,0.2c0.1-0.1,0.2-0.2,0.3-0.4c0-0.1,0-0.1,0-0.2c0-0.1-0.1-0.2-0.1-0.2C45.9,17.6,46.1,17.7,46.2,17.7z
		 M46.6,17.5c0,0-0.1,0-0.2,0.1c0-0.1,0-0.2-0.1-0.2c-0.1,0-0.1,0-0.1,0c0,0,0,0-0.1,0c-0.1,0-0.1,0-0.1-0.1c0-0.1,0-0.1-0.1-0.1
		c-0.1,0-0.1,0-0.1,0c0,0,0,0,0,0c0,0.1,0,0,0-0.2c0,0,0.1-0.1,0.2-0.1c-0.1-0.1-0.2-0.1-0.3-0.1c0,0,0.1-0.1,0.3-0.2
		c0.2-0.1,0.3-0.2,0.3-0.3c0,0.1,0.1,0.2,0.2,0.3v0.2c-0.1,0-0.2,0-0.4,0.1c0.1,0.1,0.2,0.2,0.4,0.2V17.5z M46.4,18.3
		c-0.1,0.1-0.2,0.2-0.3,0.3c-0.1-0.1-0.1-0.1-0.1-0.2c0-0.1,0.1-0.3,0.3-0.4C46.3,18.2,46.3,18.3,46.4,18.3z M46.6,18.6l-0.1,0.2
		l-0.1,0L46.6,18.6L46.6,18.6z M46.9,18.9L46.8,19L46.7,19l0.1-0.2L46.9,18.9z"/>
	<path class="st0" d="M69.3,21.2c-0.8,0.1-1.7,0.1-3,0.1c0-0.1-0.1-0.2-0.1-0.3c0,0-0.1,0-0.2,0.1c-0.1,0.1-0.2,0.1-0.3,0.1h-1.1
		c0,0-0.2,0-0.6-0.1c-0.4,0-0.8,0-1,0c-0.1-0.4-0.4-1-0.7-1.8c-0.1-0.2-0.2-0.3-0.4-0.4c-0.4-0.2-0.8-0.2-1.1-0.2
		c-0.1,0-0.1,0-0.1,0.1c0,0,0,0-0.1,0c0,0-0.1-0.1-0.2-0.2c-0.1,0-0.1,0.1-0.1,0.2c-0.3,0-0.7,0-1.3,0.1C58.6,19,58.2,19.1,58,19
		c-0.6,0-1.8,0-3.4,0.1c-0.1,0.2-0.2,0.3-0.3,0.5l-0.1,0.1c0,0.1,0,0.1,0,0.2c-0.2,0.4-0.4,0.9-0.7,1.5c-0.1,0-0.3,0-0.5,0
		c-0.1,0-0.2,0-0.3,0c-0.1,0-0.2,0-0.3,0c-0.1,0-0.2,0-0.3,0.1c-0.1,0-0.2,0.1-0.3,0.1c-0.1,0-0.2,0-0.2-0.1c-0.1,0-0.2-0.1-0.2-0.1
		c-0.1,0-0.3,0.2-0.5,0.5c-0.1-0.1,0-0.1,0.1-0.2c-0.1-0.2-0.3-0.2-0.4-0.2c-0.2,0-0.6,0-1.1,0.1c-0.2,0-0.3,0.1-0.4,0.2
		c0-0.1,0-0.2-0.1-0.2c-0.1,0-0.2,0.1-0.2,0.2c-0.1-0.1-0.2-0.2-0.5-0.2c-0.2,0-0.5,0-0.8,0c0-0.1,0.2-0.7,0.5-1.8
		c0.2-0.6,0.4-1.2,0.7-1.8c0-0.2,0.1-0.4,0.2-0.8c0.2-0.7,0.7-2,1.3-3.7c0-0.1,0-0.2-0.1-0.4c0.2-0.2,0.3-0.4,0.4-0.6
		c0-0.1,0-0.1-0.1-0.1c0.4-0.5,0.6-0.9,0.5-1.3c0.2-0.3,0.4-0.8,0.6-1.6c0.1-0.1,0.2-0.2,0.3-0.4c0-0.2,0-0.4,0.1-0.7
		c0.4-1,1-2.6,1.7-4.7c0.3-0.9,0.7-2,1.1-3.4h6.8c0.5,1.2,1.9,4.9,4.3,11.2c0,0.1-0.1,0.1-0.2,0.3c0,0.1,0.1,0.1,0.2,0.1
		c0.3,0.5,0.4,0.8,0.4,1.1c0.1,0.1,0.1,0.2,0.2,0.4c0,0.2,0,0.3,0,0.4c0,0,0.1,0,0.2,0c0.5,1.2,1,2.6,1.6,4.5c0,0.1,0,0.2-0.1,0.3
		c0.1,0.1,0.2,0.2,0.4,0.4C68.5,19.1,68.8,19.9,69.3,21.2z M49.5,14.5c-0.1-0.1-0.3-0.1-0.4-0.1c0.1-0.1,0.2-0.2,0.3-0.3
		C49.4,14.1,49.4,14.3,49.5,14.5z M49.4,10.7l-0.1,0.2l-0.1,0l0.1-0.2L49.4,10.7z M49.6,11.2c0,0-0.1,0-0.1,0.1
		c-0.1,0.1-0.1,0.1-0.2,0.1c0.1,0,0.1-0.1,0.1-0.2C49.5,11.2,49.6,11.2,49.6,11.2z M50.2,22.1l-0.1,0.2l-0.1,0l0.1-0.2L50.2,22.1z
		 M50.2,9.7l-0.1,0.2l-0.1,0L50.2,9.7L50.2,9.7z M50.4,20v-0.3h-0.1V20H50.4z M51.2,22.3L51,22.5h-0.3c0-0.1,0.1-0.2,0.2-0.3
		L51.2,22.3z M51,21.5h-0.1v-0.2H51V21.5z M51.2,19.8l0-0.1L51,19.8v0.1L51.2,19.8z M52.7,15.6l-0.1-0.1l-0.1,0.1L52.7,15.6
		L52.7,15.6z M52.9,18.7v-0.1h-0.2v0.1H52.9z M53,19.4c-0.1-0.2-0.2-0.3-0.3-0.3v0.3H53z M52.9,12.8v-0.3h-0.1v0.3H52.9z M53.1,13.4
		c-0.1,0-0.2-0.1-0.3-0.2v0.3c0,0,0.1,0,0.2,0.1C53,13.5,53,13.4,53.1,13.4z M53.2,15.6v-0.2h-0.1v0.2H53.2z M53.5,20.3v-0.4h-0.3
		C53.3,20.1,53.4,20.2,53.5,20.3z M53.6,14.6l-0.1,0l-0.1,0.2l0.1,0.1L53.6,14.6z M53.8,16.4v-0.1h-0.2v0.1H53.8z M54,17.5
		c-0.1-0.1-0.2-0.1-0.3,0c0.1,0,0.1,0.1,0.2,0.2C53.9,17.6,54,17.6,54,17.5z M53.9,19v-0.2h-0.3C53.8,18.9,53.9,18.9,53.9,19z
		 M53.9,18.4v-0.3h-0.1v0.3H53.9z M54.8,16.2V16h-0.1v0.2H54.8z M60.1,12.3L60,12.4l-1.9-4.3l-1.9,5.4c0,0,0,0.1,0.1,0.2
		c0.5,0,1.1,0,1.8,0c0.6,0,0.9,0,0.9,0c0.1,0,0.3,0.1,0.6,0.2c0-0.1,0.2-0.1,0.5-0.2C60,13.3,60,12.8,60.1,12.3z M57.8,16.6
		c0-0.1,0-0.1,0-0.2c0-0.1,0-0.2,0-0.2c-0.1,0.1-0.1,0.2-0.1,0.4C57.6,16.7,57.7,16.7,57.8,16.6z M58.1,4.7H58L58,4.9l0.1,0
		L58.1,4.7z M58.5,16.6c0,0,0-0.1-0.1-0.2l-0.2,0.2H58.5z M58.8,14.3c0-0.1-0.1-0.2-0.2-0.3c0,0.1,0,0.2,0,0.3c0,0.1,0,0.2,0,0.2
		C58.7,14.4,58.8,14.3,58.8,14.3z M59,16.7l-0.1,0l-0.1,0.2l0.1,0L59,16.7z M59.3,18.5L59,18.4v0.1l0.2,0.1L59.3,18.5z M61,17.6
		c-0.2,0-0.3-0.1-0.3-0.2c-0.1-0.2-0.1-0.3-0.2-0.3c-0.1,0.2-0.1,0.4,0,0.5H61z M60.9,17.1l-0.1,0l-0.1,0.2l0.1,0.1L60.9,17.1z
		 M60.9,16.2V16h-0.1v0.2H60.9z M61.3,17.1c0,0-0.1,0.1-0.2,0.1c0.1,0.1,0.1,0.2,0.1,0.3C61.2,17.3,61.3,17.2,61.3,17.1z M61.4,16.9
		l-0.1-0.1l-0.1,0.1L61.4,16.9L61.4,16.9z M61.7,18.2c0,0,0-0.1,0-0.1c0-0.1,0-0.1,0-0.1c0,0-0.1,0.1-0.3,0.2l0.2,0.2
		C61.5,18.4,61.6,18.3,61.7,18.2z M61.6,15v-0.3h-0.1V15H61.6z M61.8,16.7v-0.1h-0.3v0.1H61.8z M62.2,14.7v-0.1h-0.3v0.1H62.2z
		 M62.2,13.3v-0.1H62v0.1H62.2z M62.2,13.8c0-0.1,0-0.2-0.1-0.3c0,0-0.1,0.1-0.1,0.2C62.1,13.8,62.1,13.8,62.2,13.8z M62.4,17
		l-0.1-0.1L62.2,17L62.4,17L62.4,17z M62.4,3.7V3.6h-0.2v0.1H62.4z M63,17.7c0,0,0-0.1,0-0.2c0-0.1,0-0.2,0-0.2
		c0-0.1-0.1-0.1-0.2-0.2c0,0,0,0.1-0.1,0.2c0,0.1-0.1,0.1-0.1,0.2C62.8,17.6,62.9,17.7,63,17.7z M63.1,10.7v-0.3H63v0.3H63.1z
		 M63.1,11.1v-0.2H63v0.2H63.1z M63.4,18.3l-0.1,0l-0.1,0.2l0.1,0L63.4,18.3z M64.2,19.6c-0.1,0-0.1,0.1-0.1,0.2l-0.2-0.1
		c-0.1,0-0.1,0.1-0.2,0.3c-0.1,0-0.3-0.1-0.5-0.1v0.3c0.1-0.1,0.2-0.1,0.3-0.1c0.1,0,0.1,0,0.1,0.1c0,0,0,0.1,0.1,0.1
		c0.1,0,0.2-0.1,0.3-0.3C64.1,19.8,64.2,19.7,64.2,19.6z M63.8,18.2l-0.2-0.2c-0.1,0.1-0.2,0.2-0.2,0.3l0.2,0.4
		C63.6,18.5,63.7,18.3,63.8,18.2z M64.1,13.9L64,13.8l-0.2,0.1V14L64.1,13.9z M64.6,18.9h-0.1l-0.1,0.2l0.1,0.1L64.6,18.9z M65,19.2
		L65,19.2l-0.2,0.2l0.1,0L65,19.2z M65.3,19.5c-0.1-0.1-0.3,0-0.5,0.1c0.1,0,0.1,0,0.2,0.1C65.1,19.7,65.2,19.6,65.3,19.5z
		 M65.2,20.8v-0.3h-0.1v0.3H65.2z M65.8,20.1L65.8,20.1l-0.3,0.1l0.1,0.1L65.8,20.1z M66.1,20.4H66l-0.1,0.2l0.1,0L66.1,20.4z
		 M66.3,17.9l-0.1-0.3l-0.1,0l0.1,0.2H66.3z M66.3,18.7h-0.1L66.1,19h0.1L66.3,18.7z M66.3,18.3v-0.2h-0.1v0.2H66.3z M66.6,19.9
		L66.6,19.9c-0.1,0-0.1,0-0.2,0.1C66.4,20,66.5,20,66.6,19.9C66.6,19.9,66.6,19.9,66.6,19.9z M66.7,18.9L66.7,18.9L66.5,19l0.1,0
		L66.7,18.9z M66.6,20.4v-0.3h-0.1v0.3H66.6z M67.1,19.9L67.1,19.9L67,20.1l0.1,0.1L67.1,19.9z M67.9,19l-0.3-0.1c0,0,0,0.1,0.1,0.2
		C67.7,19,67.8,19,67.9,19z M67.8,18.4v-0.2h-0.1v0.2H67.8z"/>
	<path class="st0" d="M83,15.5c-0.1,0.2-0.2,0.3-0.3,0.4c0.1,0.1,0.1,0.2,0.1,0.2c0,0.2-0.1,0.5-0.4,0.7c0,0.2,0,0.3-0.1,0.5
		c-0.1,0.2-0.2,0.4-0.4,0.5c0,0,0.1,0,0.2-0.1c-0.2,0.7-0.3,1-0.3,1c-0.2,0.5-0.3,0.8-0.5,1l0.2,0.2c0-0.1-0.1,0.2-0.3,0.9
		c-0.4,0.2-0.6,0.4-0.8,0.4H69.6v-6.1l0.1-0.1c0.1-0.1,0-0.1-0.1-0.2c0-0.1,0-0.1,0.1-0.1c0,0,0.1,0,0.1-0.1c-0.1,0-0.1-0.1-0.2-0.2
		c0-0.1,0-0.2,0.1-0.3c-0.1-0.3-0.2-0.8-0.2-1.2c0-0.6,0.1-1.1,0.2-1.5c0.1,0,0.2,0,0.4,0c0.2,0,0.4,0,0.5,0c0,0,0.1-0.1,0.1-0.2
		c0,0-0.1-0.2-0.2-0.4c0,0,0-0.1,0-0.2c0,0,0-0.1-0.1-0.1c0,0-0.1,0.1-0.1,0.1c-0.1,0.1-0.1,0.1-0.2,0.1c0-0.1,0-0.1,0.1-0.2
		c-0.2-0.3-0.4-0.5-0.5-0.5c-0.1,0-0.1,0-0.1,0.1c-0.1-0.2,0-0.4,0.1-0.4c0,0-0.1-0.1-0.1-0.2c-0.1-0.1-0.1-0.2-0.1-0.2
		c0-0.3,0.1-0.5,0.2-0.7c0,0,0.1,0,0.1,0.1c0.1,0.1,0.1,0.1,0.1,0.1h0.1c-0.1-0.2-0.3-0.3-0.4-0.2l-0.2-8.8h2.4
		c-0.1,0-0.1,0.1,0,0.1c-0.1,0,0,0,0.2-0.1c0.6,0,1.6-0.1,3.2-0.1v7.2c-0.1-0.1-0.1-0.1-0.2,0c0,0,0.1,0.1,0.2,0.2
		c0,1.1,0,2.6,0.1,4.6c-0.1,0.1-0.1,0.1-0.2,0.1c0,0,0,0.1,0,0.2l0.1,0.1c0,0,0-0.1,0.1-0.1c0-0.1,0-0.1,0.1-0.1c0,0.1,0,0.4-0.1,1
		c0,0.6,0,0.9,0,1c0,0.2,0.1,0.5,0.1,1c0.3,0.3,0.6,0.4,0.7,0.4L83,15.5z M70,1C70,1,69.9,1,69.8,1c0,0,0.1,0.1,0.1,0.2
		C69.9,1.1,70,1.1,70,1z M70.2,2.4l0-0.1l-0.3,0.2v0.1L70.2,2.4z M70,7.2V6.9h-0.1v0.3H70z M70.5,5.2V5h-0.1v0.2H70.5z M70.6,11.9
		c-0.1,0-0.1,0-0.2,0.1c0,0,0.1,0.1,0.1,0.2C70.6,12.1,70.6,12,70.6,11.9z M70.6,6h-0.1l-0.1,0.3h0.1L70.6,6z M70.8,2.6
		c0-0.1,0-0.2-0.1-0.3c0,0-0.1,0.1-0.1,0.2C70.6,2.6,70.7,2.6,70.8,2.6z M71,13.9l-0.1-0.1c0-0.1,0-0.1,0-0.1
		c-0.1,0-0.1,0.1-0.1,0.2C70.8,13.9,70.9,13.9,71,13.9z M71.9,0.3L71.9,0.3l-0.2,0.1l0.1,0.1L71.9,0.3z M71.9,7l-0.1-0.1L71.8,7
		L71.9,7L71.9,7z M72.6,7.7c0,0-0.1,0.1-0.1,0.1c-0.1,0.1-0.1,0.1-0.1,0.2c0,0,0.1,0.1,0.2,0.1C72.5,8,72.6,7.8,72.6,7.7z M72.9,1.1
		V0.9h-0.1v0.3H72.9z M72.9,12.1L72.9,12.1l-0.2,0.2l0.1,0L72.9,12.1z M73.1,10.9L73,10.8l-0.1,0l0.1,0.2H73.1z M73.6,3.2V2.9h-0.1
		v0.3H73.6z M74.1,10.8c0,0,0-0.1,0-0.2c0-0.1,0-0.1,0-0.1c-0.1,0-0.1,0.1-0.1,0.2C74,10.8,74.1,10.8,74.1,10.8z M74.3,5.9V5.8h-0.1
		v0.2H74.3z M74.3,14.7v-0.2h-0.1v0.2H74.3z M74.4,10.9v-0.5h-0.1v0.5H74.4z M74.5,12.6l-0.1,0l-0.1,0.2l0.1,0L74.5,12.6z M74.5,9
		c0-0.1,0-0.2-0.1-0.2c-0.1,0-0.1,0.1-0.1,0.2C74.4,9,74.5,9,74.5,9z M74.7,1V0.9h-0.3V1H74.7z M74.7,10L74.7,10l-0.2,0.1l0.1,0.1
		L74.7,10z M74.8,14.1v-0.2h-0.1v0.2H74.8z M75,11.7v-0.2h-0.1v0.2H75z M75.1,13.4L75,13.3l-0.1,0.1L75.1,13.4L75.1,13.4z
		 M78.5,17.4v-0.2h-0.1v0.2H78.5z M79.7,20.1L79.7,20.1l-0.2,0.1l0.1,0L79.7,20.1z M80.7,18.9v-0.3h-0.1v0.3H80.7z M81.6,19.4
		l-0.1-0.2l-0.1,0l0.1,0.2H81.6z M81.7,19v-0.2c0,0-0.1,0-0.1,0c-0.1,0-0.1,0-0.1,0v0.3C81.6,19,81.6,19,81.7,19z M82,16.7L82,16.7
		l-0.2,0.2l0.1,0L82,16.7z"/>
</g>
</svg>
