<?xml version="1.0" encoding="utf-8"?>
<!-- Generator: Adobe Illustrator 20.1.0, SVG Export Plug-In . SVG Version: 6.00 Build 0)  -->
<svg version="1.1" id="레이어_1" xmlns="http://www.w3.org/2000/svg" xmlns:xlink="http://www.w3.org/1999/xlink" x="0px"
	 y="0px" viewBox="0 0 706.4 210" style="enable-background:new 0 0 706.4 210;" xml:space="preserve">
<style type="text/css">
	.st0{fill:#FFFFFF;}
</style>
<g>
	<path class="st0" d="M135.3,113.5c0,11.1-2.2,21.5-6.5,31c-4.5,10.1-10.8,17.8-18.9,23c-2.4,1.9-6.2,4.5-11.4,7.8
		c-5.4,2.4-11.1,4.1-17.2,5.1c-3,0.4-7.8,0.7-14.5,0.7c-26.2,0-45.5-8.8-58.2-26.3c-0.6-1.8-1.6-4.5-3.1-8c-0.7-1-1.6-2.6-2.5-4.7
		c-1.6-9.5-2.5-14.5-2.5-14.9v-31c0-0.4,0.4-0.7,1.3-0.7c-0.3,0,0.8,0.4,3.3,1.3c-0.4-0.7-1.6-1.4-3.6-2c0-0.1,0.1-0.6,0.3-1.3
		c0.2-0.7,0.3-1.2,0.3-1.3H6c0.4,0,0.7,0.3,0.9,0.9c0.1,0.6,0.4,0.9,0.9,0.9c1.6,0,3-0.4,4-1.3c1,0.6,1.9,1.6,2.5,2.9
		c0.7,0,1.4-0.5,2-1.6c1.2,0.7,2.6,2.1,4.2,4c0.4-0.9,1.4-2.4,2.9-4.5l-1.3-1.3c-0.6,0.6-1.3,0.9-2.2,0.9c0.6,0,0.9-0.4,0.9-1.3
		c1.5,0.3,2.4,0.7,2.7,1.3c0.3,1.2,0.6,2.4,0.9,3.6c0.1,0,0.3-0.4,0.6-1.1c0.2-0.7,0.6-1.1,1.2-1.1c0.4,0,0.7,0.1,0.7,0.3
		c0,0.2,0.2,0.3,0.7,0.3c1.5,0,1.7-0.5,0.7-1.6c0.3,0,0.8,0.1,1.6,0.2c0.7,0.2,1.3,0.2,1.8,0.2c0.4,0,0.7-0.2,0.8-0.7
		c0.1-0.4,0.4-0.7,1.1-0.7s1.5-0.2,2.6-0.7c-0.7-0.3-1.9-0.8-3.6-1.6c-1,1-1.7,1.6-2,1.6c0.1-1.3-0.2-2-0.9-2
		c-0.4,0-0.9,0.1-1.2,0.2c-0.4,0.2-0.9,0.2-1.4,0.2c-0.4,0-2.6-0.6-6.4-1.7c-3.8-1.1-5.9-1.7-6.4-1.7c-0.6,0-1.3,0.7-2.2,2
		c-0.9,1.3-1.4,2.1-1.6,2.2c0.7,0.2,1.7,0.6,2.9,1.3c-0.9-0.4-2.2-0.6-3.8-0.4c-0.4-1.3-0.1-2.5,0.9-3.6c-0.1-0.1-1.9-1-5.3-2.7
		c-0.9,0.9-0.7,1.3,0.7,1.3c-0.3,0-0.7-0.1-1.2-0.4c-0.5-0.3-0.9-0.4-1-0.4c0,0.3-0.1,0.9-0.3,1.7c-0.2,0.8-0.3,1.4-0.3,1.9
		c-0.3-0.3-0.7-0.7-1.3-1.3c0.1-0.6,0.2-1.6,0.2-2.9c-0.3-0.6-0.6-1.4-1-2.3C0.2,82.3,0,80.5,0,78V0.7h45.2v54.4
		c2.2,0.3,4.7,0.1,7.4-0.7c4.3-1.2,7-1.9,8-2c8.3-1.3,16.7-2,25.2-2c2.8,0,9.3,2.3,19.3,6.9c10,4.6,17.8,12.9,23.3,24.7
		C133,91.8,135.3,102.3,135.3,113.5z M3.8,111.4c-0.7,0.9-1.6,1.3-2.7,1.3c0.4,0.3,1,0.6,1.6,0.9c0-0.1,0.2-0.4,0.6-0.9
		C3.6,112.3,3.8,111.9,3.8,111.4z M4.9,105.2H3.8l-0.7,3.3h1.1L4.9,105.2z M8,89.6c-1.2,0-1.9,0.1-2.2,0.4c0.7,0.7,1.1,1.2,1.1,1.3
		L4,90c0.9,0,1.3-0.4,1.3-1.3L8,89.6z M8.7,96.5c-0.4-0.4-0.7-1-0.9-1.6l-1.6,1.6H8.7z M8.7,112.8L8,112.6l-0.7,1.3l0.7,0.4
		L8.7,112.8z M14.3,152H12c0,0.1,0.4,0.7,1.3,1.6C13.8,153.3,14.1,152.8,14.3,152z M17.6,112.6c0-0.9-0.3-1.6-0.9-2.2
		c0,0.1-0.2,0.5-0.6,1c-0.4,0.5-0.6,0.9-0.6,1.2H17.6z M18.5,89.6l-1.3,2l-0.9-0.7l1.6-1.8L18.5,89.6z M28.1,138l-0.7-0.4l-0.7,1.6
		l0.7,0.2L28.1,138z M44.6,96.7c-6.7-1.6-11.6-2.5-14.7-2.5c-0.9,0.9-1.3,1.6-1.3,2.2h2.2c0-0.7,0.3-1.1,0.9-1.1
		c1.5,1.5,2.2,2.6,2.2,3.3c1.3,0,2-0.5,2-1.6c-0.9,0-1.4-0.1-1.6-0.2c0.6-0.1,1.6-0.4,3.1-0.9c1.3,1.3,2,2.5,2,3.6
		c0,0.6-0.2,1-0.6,1.3c-0.4,0.3-0.6,0.5-0.6,0.7c0.1,0,0.7-0.5,1.8-1.6c0.3,0.4,0.3,1,0,1.6c-0.3,0.9-0.4,1.5-0.4,1.8
		c1-1.2,1.7-1.7,2-1.6c-0.6-0.1-0.8-1.3-0.7-3.6c0.6,0.7,1,1.1,1.1,1.1c0-1.6,0-2.4,0-2.2c0.6,0,0.9,0.4,0.9,1.1L44.6,96.7z
		 M31.7,102.8c-0.7-0.3-1.3-0.7-1.8-1.3c-0.1-0.1-0.6,0.3-1.3,1.3C30.5,102.8,31.5,102.8,31.7,102.8z M32.8,137.8l-1.6-1.3l-0.4,0.4
		l1.3,1.6L32.8,137.8z M33,99v-0.9h-2V99H33z M35.9,102.5v-1.1h-2v1.1H35.9z M40.3,92.7v-0.9h-2.7v0.9H40.3z M42.8,106.5v-1.1h-1.6
		v1.1H42.8z M91.8,114.8c0-2.2-0.7-5-2-8.2c-3-7.9-8.8-12.4-17.6-13.6c-0.3,0-0.8-0.1-1.5-0.4c-0.7-0.3-1.2-0.4-1.7-0.4
		c-2.8,0-6.4,1.1-10.7,3.3c-3.1,1.6-6.2,3.2-9.4,4.7c0.3,1.2-0.2,2.9-1.6,5.1c-0.2,1.6-0.6,3.8-1.3,6.5c-0.1,0.1-0.4,0.3-0.9,0.6
		c-0.4,0.2-0.7,0.5-0.7,0.8c1.2,1.8,2.2,5.4,2.9,10.7c1.6,2.8,4.6,5.6,9,8.2c4.4,2.7,8.2,4,11.5,4h4.5c0.6,0,1.5-0.3,2.7-0.9
		c1.3-0.1,3-0.5,5.1-1.1c2.1-0.6,4.2-2,6.2-4.3c2.1-2.3,3.3-4.3,3.8-5.9C91.3,120.1,91.8,117.2,91.8,114.8z M47,99.6l-0.9-0.9
		l-0.7,0.7l0.9,0.7L47,99.6z M54.8,135.3l-0.4-0.7l-1.8,1.3l0.7,0.7L54.8,135.3z M94.5,145.3v-1.1h-2v1.1H94.5z M99.9,149.6h-2
		c-0.3,0-0.5,0.6-0.7,1.8C99,150.5,99.9,149.9,99.9,149.6z M123.7,110.6c0.1,0-0.4-0.1-1.7-0.3c-1.3-0.2-2.6-0.3-3.9-0.3v2
		c2.7,0,4.4,0.1,5.1,0.4C122.7,111.9,122.8,111.3,123.7,110.6z M124.8,115.2c-0.7-0.9-1.1-1.8-1.1-2.7l-1.6,1.6
		C122.9,114.4,123.8,114.8,124.8,115.2z M131.7,116.4c-1.2-1.3-1.9-2-2.2-2v2H131.7z"/>
	<path class="st0" d="M269.7,53.3c-0.7,2.8-1.3,5-1.8,6.5c-4.5,14.3-7.4,23.3-8.7,27.2c-0.4,1-1.2,1.9-2.2,2.5
		c0.4,0.2,0.8,0.2,1.1,0.2c-9.7,30.8-17.2,55.3-22.5,73.6c-1.2,1.3-2.2,2.4-3.1,3.1c-0.3,2.2-0.2,3.9,0.2,5.1
		c-2.2,8.2-4.1,14.3-5.6,18.3c-4.2,7.3-8.1,13.7-11.8,19.2c-1.2,0.9-2.8,1.3-4.7,1.1h-45.7c3.9-7.1,7.4-13.3,10.7-18.5
		c3.1-9.4,4.7-13.6,4.7-12.7c0,1.5-5.1-11.4-15.2-38.6L138,70.4c-0.6-1.5-1.2-3.9-1.8-7.1c-2.5-5.2-4.4-9.2-5.6-12
		c8.8-0.7,16.6-0.9,23.4-0.4c0.1,0,0.5,0.2,1,0.4c0.5,0.3,1.1,0.4,1.7,0.4c-0.2,0,0.3-0.3,1.3-0.9c2.2,0,6.4-0.1,12.5-0.4
		c5.3-0.3,9.6-0.4,12.7-0.4c9.2,21.7,16.1,38,20.5,49c0.3,0,0.7-0.3,1.1-0.9c1.3-2.8,2.8-7.6,4.5-14.3c4.3-15,7.6-26.3,10-33.9h51.9
		v1.6C271.3,52.1,270.7,52.7,269.7,53.3z M235.2,149.8c-0.7,0-1.1,0.7-1.1,2.2c0.4,0,1-0.2,1.8-0.7
		C235.8,151.1,235.6,150.5,235.2,149.8z M244.4,56.7c-0.7,0.2-1.2,0.3-1.5,0.3v-2.2c1.3,0,2.2-0.2,2.7-0.7v2.2
		C245.5,56.4,245.1,56.5,244.4,56.7z M243.4,58c1.8-0.9,3-1.6,3.8-2c0.3,0,0.4,0.7,0.4,2.2C245.1,58.2,243.7,58.1,243.4,58z
		 M244.7,63.7v-1.1l2.9,0.9v0.9L244.7,63.7z M249.4,60.6l-0.9-0.2l0.9-1.6l0.7,0.2L249.4,60.6z M253.4,54.8c-0.6,0.7-1,1.3-1.1,1.6
		c-0.2,0-0.7-0.2-1.6-0.7c-0.9-0.4-1.6-0.7-2-0.7c2.5-0.9,4.5-1.6,5.8-2C254.4,53.5,254,54.1,253.4,54.8z M249.9,70.9l-0.7-0.7
		l1.6-1.6l0.7,0.7L249.9,70.9z M253.7,60.9l-0.9-0.9l0.7-0.7l0.9,0.9L253.7,60.9z"/>
	<path class="st0" d="M399.7,178.8c-4.8,2.4-8.4,3.6-10.9,3.6c-0.4,0-4.5-0.2-12.3-0.6c-7.7-0.4-11.8-0.6-12.3-0.6
		c-4.6,0-14-2.3-28.1-6.9c-15-5.1-27.8-15.5-38.3-31.2c-7.7-11.6-12-21.9-12.9-31c-0.1-2.1-0.7-5.1-1.6-9.1c0-5.9-0.1-10.3-0.2-13.2
		c-0.2-2.8-0.2-3.9-0.2-3.3c0-7.9,1.8-17.1,5.3-27.6c0.9-2.8,2.4-6.7,4.5-11.6c3.6-6.7,7.4-12.1,11.6-16.3c2.1-2.2,5.3-5.7,9.8-10.5
		c1.9-1.8,3.8-3.3,5.6-4.5c15.6-10,30.9-14.9,45.9-14.9c5.2,0,14.9,0.7,29,2.2l1.8,36.1c0,3.1-0.4,8-1.3,14.7
		c-2.5-0.9-6.2-1.9-10.9-3.1c-6.4-1.3-11.8-2-16.3-2c-0.1,0-0.7,0.3-1.6,0.9c-8.3-0.3-17.1,4.7-26.3,14.9c-1.8,1.9-3.8,5.6-6,10.9
		c-0.3,0.4-0.7,1.3-1.3,2.5c-1.2,5.8-1.8,10-1.8,12.5c0,3,1.1,7.9,3.3,14.7c2.1,6.2,3.4,9.7,4,10.3c2.5,2.4,6.2,5.5,11.1,9.4
		c0.7,0.3,1.9,1,3.6,2c0,0.3-0.3,0.6-0.8,1c-0.5,0.4-0.8,0.8-0.8,1.2c0,0.3,0.1,0.7,0.2,1.1c0.1-0.1,0.7-0.6,1.7-1.2
		c1-0.7,1.7-1,2.1-1c-0.4,0,2.3,1.1,8.2,3.3c0,0.4-0.1,0.9-0.2,1.3c-2.1,0.7-3.1,2.1-3.1,4v1.8c0.1,0-0.5-0.7-2-2
		c-0.9,0.6-2.3,1.4-4.2,2.5c1.2,0.9,2.1,1.2,2.7,0.9v2c-0.4,0.3-1.1,0.7-2,1.3v-1.8c-0.6,0-1.2,0.3-1.8,0.9c0.6,0.6,0.9,1.5,0.9,2.7
		c0-0.3-0.2-0.7-0.7-1.1l-0.9,0.7c0.1,0.7,0.6,1.6,1.3,2.7c0.3,0,0.6,0,0.9,0c0.3,0.2,0.4,0.3,0.2,0.4c-0.1,0.3-0.6,0.8-1.3,1.6
		c0,0.6,0.7,1,2.2,1.3v3.8c-0.1,0-0.4-0.3-0.8-0.8c-0.4-0.5-0.9-0.8-1.4-0.8c-0.4,0-0.7,0.1-0.7,0.3c0,0.2-0.2,0.3-0.7,0.3l-1.1-1.1
		c-0.4,0.4-1.9,2.2-4.2,5.4v4.2c0.9-0.4,1.6-0.4,2,0c0.3-1,0.7-2.1,1.1-3.1c0.4-1,1.4-1.7,2.9-2c0,0.4-0.2,1.2-0.4,2.2
		c-0.3,1-0.4,1.9-0.4,2.5c0.7,0.2,1.8,1,3.1,2.7c0.7-0.3,1.3-0.7,1.7-1.3c0.4-0.6,0.6-0.9,0.8-0.9c-0.3,0.3-0.4,1.3-0.4,2.9
		c0,2.5,0.7,3.8,2.2,3.8c0.9,0,2,0,3.3,0c-0.2,0.9-0.2,1.7-0.2,2.5c0,1.2,0.5,2.2,1.6,3.1c0.7-0.4,1.8-1.1,3.1-2l-0.4-3.1
		c0.1,0-0.4,0.6-1.6,1.8v-2.7c1.8,0.9,2.8,1.7,3.1,2.5c0,0.6-0.4,1.5-1.1,2.7c0.3,0.1,0.7,0.4,1.3,0.9c0.4-0.7,1.3-1.4,2.7-2
		c-0.4-0.9-1.2-2.3-2.2-4.2c0.1,0,0.6,0.4,1.3,1.1c1.3-0.6,2.2-1.7,2.7-3.3c0,0.4-0.1,1.2-0.3,2.2c-0.2,1-0.3,1.7-0.3,2
		c0.3,0.3,0.6,0.3,0.9,0c0.3-0.1,0.4-0.4,0.4-0.7c0.1,0.3,0.2,1.4,0.2,3.3c1.3,0,2-0.7,2-2.2c0.1,0,0.4,0.1,0.9,0.2
		c0.4,0.1,0.9,0.2,1.3,0.2c0-0.7-0.6-1.4-1.8-2c1.5,0,2.7-0.2,3.8-0.7c0,1.2,0.1,2.1,0.4,2.7c0.3-0.7,0.8-1.7,1.6-2.9
		c0.1,0.3,0.4,0.5,0.9,0.7c0.4,0.2,0.7,0.3,0.9,0.4c2.7-2.5,4.9-3.8,6.7-3.8c0.6,0,0.7,0.2,0.4,0.6c-0.3,0.4-0.2,0.6,0.2,0.6
		l3.1-3.1c-0.7-0.6-1.9-1.6-3.3-2.9c0.3-0.3,0.7-0.2,1.3,0.2l1.8-1.6c0,0.6-0.3,1.2-0.9,1.8c0.4,0,2.3,0.6,5.6,1.8v3.6
		c-3.1,0.7-7.7,2.2-13.6,4.5c0.4,0.6,1.1,1.6,2,3.1c0.4-0.6,1-1.5,1.6-2.7c2.8-0.6,6.3-1.6,10.5-2.9c0,0.9,0.1,2.6,0.3,5
		S399.7,177.6,399.7,178.8z M322.5,27.2l-0.9-0.2l-0.7,1.6l0.9,0.2L322.5,27.2z M325.7,120.4v-0.9h-1.6v0.9H325.7z M327.9,125.3
		l-1.6,1.3c0.3,0.4,0.6,1,0.9,1.6C327.7,127.6,327.9,126.6,327.9,125.3z M328.1,134.9v-1.6h-0.9v1.6H328.1z M332.6,77.1
		c0-0.1-0.5-0.7-1.6-1.6c-0.3,0.4-0.7,0.7-1.3,0.7c0,0.2,0.4,0.7,1.3,1.6C331.4,77.5,332,77.3,332.6,77.1z M336.1,146.9l-1.1-1.6
		c-0.1-0.1-0.8,0-2,0.4c0.9,0.4,1.3,1.3,1.3,2.7C335.2,147.4,335.8,146.9,336.1,146.9z M337.5,134.4c-0.9,0.3-2,1-3.3,2
		c0.4,0.3,1.4,0.4,2.9,0.4C336.3,136.3,336.4,135.4,337.5,134.4z M336.6,145.6v-2.2h-0.9v2.2H336.6z M344.4,143.3
		c-1.5,0.6-3.1,1.4-4.9,2.5c-1.9,2.2-2.9,5.2-2.9,8.9c0,0.2,0.4,0.7,1.3,1.6l1.6-1.6c0.4,0.3,0.9,0.4,1.3,0.4c-0.4-0.4-1.1-1.1-2-2
		c0.3-0.6,0.4-1.3,0.2-2c-0.3-0.9-0.7-1.3-1.1-1.3l1.1,0.7c0.6,0.3,0.9,0.9,0.9,1.8l1.1-0.4c0-0.1-0.4-0.7-1.1-1.6
		c0-1.5,0.7-2.9,2.1-4.3C343.4,144.5,344.2,143.6,344.4,143.3z M339,143.3v-2.2h-1.1v2.2H339z M342.6,138.4l-2.7-0.7
		c0,0.6-0.2,1.4-0.7,2.5l0.7,0.4C340.5,140.1,341.4,139.3,342.6,138.4z M341.7,134.9v-2.7h-0.9v2.7H341.7z M343.7,159.1
		c-1.8,0-2.7,0.7-2.7,2.2c0,1.3,0.7,1.9,2,1.6C344.1,161,344.3,159.7,343.7,159.1z M343.5,132.2l-0.9-0.2l-0.7,1.6l0.7,0.2
		L343.5,132.2z M350.6,130.6c0-0.6-0.4-1.4-1.3-2.5c-0.4,1-1.4,2.5-2.9,4.5c-1.5,1-2.7,1.9-3.6,2.5v3.1c0.6,0,1-0.2,1.3-0.7
		c3.1-3.3,5.1-4.8,5.8-4.5c0-0.1,0.1-0.4,0.3-0.9C350.5,131.7,350.6,131.2,350.6,130.6z M354,135.3c0-0.9-0.7-2-2-3.3
		c-0.7,1.2-2,2.4-3.8,3.6c0,1.2-0.3,2.9-0.9,5.1c-1.5,0-3,0.9-4.5,2.7c2.1-1.5,3.4-2.2,4-2.2c0.9,0,1.3,0.2,1.3,0.4
		c0-1,0.3-1.6,0.9-1.6c0.9,0.9,1.9,2.2,3.1,3.8c-1.5-4.2-2.2-5.8-2.2-4.9c0-0.6,0.2-1,0.7-1.3c0-0.1-0.2-0.4-0.7-0.7
		c-0.4-0.3-0.8-0.7-1.1-1.1c0.1-0.1,0.4-0.3,0.7-0.4c0.3-0.1,0.6-0.3,0.9-0.4C352,135.6,353.2,135.7,354,135.3z M352.2,145.3
		c-0.3-0.4-0.5-0.9-0.7-1.3c-0.4,0.1-1.1,0.7-2,1.8c-0.9,1-1.6,1.6-2,1.6c-0.9,0-1.2-0.1-0.9-0.4c0.7-1.5,1.6-2.5,2.7-3.1v-2.2
		c-2.4,3.4-3.9,5.1-4.7,5.1l-1.8-0.4v8.9c2.4,0.1,4-0.7,4.9-2.5c-0.3-0.6-0.7-1.3-1.3-2l-1.1,1.1c-0.3-0.1-0.8-0.4-1.6-0.9
		c0.4-0.9,1.3-1.9,2.5-3.1c0,0.7,0.4,1.3,1.3,1.8C348.7,148.5,350.2,147.1,352.2,145.3z M350.2,151.1l-0.7-0.7l-1.3,1.3l0.7,0.7
		L350.2,151.1z M352.2,137.8c-0.3,0-0.8,0.2-1.6,0.7c0.3,0.4,0.6,1,0.9,1.6c0-0.3,0.1-0.7,0.3-1.2
		C352.1,138.2,352.2,137.9,352.2,137.8z M354.4,131.1l-0.2-0.9l-1.1,0.4l0.4,0.9L354.4,131.1z M360.6,157.6c0,0.1-0.4,1-1.1,2.7
		c-0.9,0-1.7-0.4-2.5-1.1l-3.3,2.2c0.6-1.2,1.5-2.7,2.7-4.5l1.8,1.6C358.9,157.9,359.8,157.6,360.6,157.6z M358.4,135.3V132
		c-1.5,1.3-2.2,2.5-2.2,3.3H358.4z M364.2,137.1c-0.4,1.2-0.7,2.2-0.9,3.1c0.4,1,0.7,1.6,0.7,1.8c-1.2,1.2-2.5,2.9-4,5.1h-2
		c1-1.3,2.7-3.3,5.1-5.8c0-0.9-0.3-1.3-0.9-1.3c-0.6,0-1,0.1-1.1,0.2c-0.1,0-0.3,0-0.4,0C361.7,139.5,362.9,138.4,364.2,137.1z
		 M360.6,155.6h-2.2l1.6-1.6C360,154.3,360.2,154.8,360.6,155.6z M360.4,148.7l-0.9,1.6l-0.7-0.4l0.7-1.3L360.4,148.7z M360.2,164.9
		l-0.4,0.4l-0.9-0.7l0.7-0.7L360.2,164.9z M362.9,163.2l-1.3,2.2l-1.3-1.6c0.1,0,0.6-0.1,1.3-0.3
		C362.3,163.3,362.7,163.2,362.9,163.2z M362.7,158.7l-0.7,2.2l-0.9-0.4l0.7-1.8H362.7z M364.9,152l-0.7,1.6l-0.9-0.4l0.7-1.3
		L364.9,152z M372.9,132.2l-0.7,4.5c0-0.7-0.4-1.1-1.1-1.1c-0.9,0-1.8,0.9-2.7,2.7c-0.4-0.6-1-1.5-1.8-2.7c-0.7,0.6-1.4,0.9-2,0.9
		c0-0.7-0.4-1.1-1.1-1.1c0.6-0.6,1.6-1.3,2.9-2c-0.4-0.4-0.7-0.8-0.7-1.1c0.6-0.1,1.4,0,2.6,0.4c1.1,0.4,1.9,0.7,2.3,0.7
		C371.6,133.3,372.3,132.9,372.9,132.2z M369.8,140.6c-0.7,1.5-1.6,2.8-2.7,3.8c0-0.1,0.1-0.5,0.4-1c0.3-0.5,0.4-1,0.4-1.4
		c0-1.5-0.9-2.7-2.7-3.6l1.1-0.2C367,139.4,368.1,140.2,369.8,140.6z M371.6,164.3c-0.2-0.1-0.5-0.1-1.1,0c-0.9,0.3-1.6,0.4-2,0.4
		c-0.4,0-0.8,0.2-1,0.7c-0.2,0.4-0.6,0.8-1,1.1c0.1-2.2,0.1-3.5,0-3.8c0.9,0,1.6-0.6,2.2-1.8c0.7,0,1.6,0.5,2.7,1.6
		c-0.4,0-0.9-0.1-1.3-0.4c-0.6,0.4-0.9,0.8-0.9,1.1C369.7,163.3,370.5,163.7,371.6,164.3z M370,146.2l-2.7,1.8l-0.4-0.7l2.5-2
		L370,146.2z M369.6,42.6v-1.1h-2.5v1.1H369.6z M369.8,134.4l-0.2-0.9l-1.3,0.7v0.9L369.8,134.4z M370,157.4h-0.9l-0.7-1.3l0.9-0.4
		L370,157.4z M373.6,175.6c-1-0.3-2.2-0.9-3.6-1.8c0,1.2-0.4,2.2-1.3,3.1c0.1,0,0.6,0.2,1.2,0.7c0.7,0.4,1.1,0.7,1.4,0.7
		C372.8,176.8,373.6,175.9,373.6,175.6z M371.8,147.8c0,1.5-0.1,2.5-0.4,2.9c-0.7,0-1.5-0.3-2.2-0.9
		C370.3,149.8,371.2,149.1,371.8,147.8z M375.4,38.3c-2.1,0.3-3.7,1.4-4.9,3.3h2.5C374.5,40.2,375.4,39.1,375.4,38.3z M374.2,41.7
		c-1.9,0.9-2.8,1.6-2.7,2.2c1.5,0,2.2,0.1,2.2,0.4L374.2,41.7z M376.5,156.9c-1.8,1.9-2.7,3.1-2.7,3.6c-0.2-0.1,0.5-0.2,2-0.2
		c0.9,0.9,0.9,1.9,0,2.9c-1-0.9-1.9-1.3-2.7-1.3v-2.5C373.6,158.6,374.7,157.8,376.5,156.9z M383.4,150.9c-0.6,0.3-1.2,1-1.8,2.2v2
		c-0.1,0-0.4-0.2-0.8-0.7c-0.4-0.4-0.8-0.7-1.2-0.9c-0.4,0.3-0.4,1.6,0.2,3.8l-2.7-0.7c0,0.3,0.5-0.4,1.6-2c0.1-0.3,0.2-1.3,0.2-2.9
		c0.4,0,0.9,0.2,1.3,0.7c0.3-1,0.1-2.7-0.7-5.1c-0.7,1-2.3,2.5-4.7,4.5c0.3-0.9,0.4-1.5,0.4-1.8c-0.3-0.4-0.8-0.7-1.6-0.7V144
		c0.6,0,1,0.1,1.3,0.4c1.9-2.1,4.1-3.7,6.5-4.9c-0.6,0.9-1.3,1.6-2.1,2c-0.8,0.4-1.2,0.8-1.2,1.1l0.7,1.1c0,1.9,1,3.1,3.1,3.6
		c0,1.2-0.5,2-1.6,2.5C381.1,149.9,382,150.3,383.4,150.9z M378.7,175.2l-0.7-2c-1.3,0.9-2.4,1.3-3.1,1.3c0,0.2,0.7,0.8,2,2
		C377.4,176.4,378,175.9,378.7,175.2z M376.7,40.8l-0.7-0.2l-0.9,1.3l0.9,0.4L376.7,40.8z M381.8,161.8h-0.9l-0.7-1.3l0.9-0.2
		L381.8,161.8z M383.6,171.6h-0.9l-1.1,2.5l0.9,0.2L383.6,171.6z M384.9,136.6c0,0.9-0.4,1.6-1.1,2.2c-0.2-0.3-0.5-0.8-1.1-1.6
		c0.3,0,0.7-0.1,1.2-0.3C384.5,136.7,384.8,136.6,384.9,136.6z M384.5,159.8l-0.4,0.7l-0.9-0.9l0.7-0.7L384.5,159.8z M387.8,153.6
		l-0.9,2.7c0-0.4-0.4-1-1.1-1.6c-0.4,0.4-1,1.2-1.8,2.2V154C385.8,153.7,387.1,153.6,387.8,153.6z M387.2,143.1
		c-0.4,0-1.1,0.4-2,1.3V140C385.8,140.6,386.4,141.6,387.2,143.1z M386.3,138.2h-0.9V136h0.9V138.2z M387.4,157.8l-1.3,2l-0.7-0.4
		l1.3-2L387.4,157.8z M388.7,147.8c-0.4-0.4-1.5-0.7-3.1-0.7c1-0.6,1.9-1.5,2.5-2.7L388.7,147.8z M390.3,163.2l-3.8,2.5l-0.4-0.9
		l3.6-2.5L390.3,163.2z M388.7,153.6c-0.9-0.9-1.6-1.3-2-1.3c0.1-0.1,0.4-0.6,0.7-1.4c0.3-0.8,0.6-1.2,0.9-1.2
		C389,151.2,389.2,152.5,388.7,153.6z M396.8,135.5c0,0.4-0.2,0.9-0.7,1.4c-0.4,0.5-0.7,0.9-0.7,1c0-0.1-0.4-0.6-1.1-1.3
		c-0.7,0.7-1.1,1.3-1.1,1.8c0-0.6-0.7-0.9-2-0.9c1.5-0.7,2.6-1.6,3.3-2.5c-0.3-0.1-0.9-0.1-1.8,0c-0.7,0-1.3-0.1-1.8-0.2
		c-0.3,0.9-0.9,2-1.8,3.3c0-1.2-0.3-1.8-0.9-1.8c0,0.3-0.1,0.3-0.4,0c-0.3-0.3-0.4-0.5-0.4-0.7c2.1-0.9,3.2-2.2,3.3-3.8l-0.4-0.7
		h-3.1c1.9-1.8,3-2.7,3.1-2.7c0.6,0,0.8,0.2,0.6,0.6c-0.2,0.4-0.1,0.6,0.3,0.6c0.9,0,2.5-1.1,4.9-3.3c0.4,0.6,0.7,1.4,0.7,2.5
		c0,2.7-1.1,4.1-3.3,4.2c0.3,0.1,1,0.4,2.2,0.9C396.4,134.4,396.8,134.9,396.8,135.5z M393,150.9c-0.4,1-1.1,2.4-2,4
		c-0.6,0.3-1.4,0.7-2.5,1.3c0.6-0.7,1.4-1.8,2.5-3.1c0.1-0.4,0.1-1.1-0.2-1.9c-0.3-0.8-0.4-1.4-0.4-1.7
		C391,149.9,391.9,150.3,393,150.9z M396.8,148.9c-0.3,0-0.8,0.2-1.6,0.7c0-1.2-0.2-1.8-0.7-1.8c-0.4,0-0.7,0.1-0.7,0.3
		c0,0.2-0.2,0.3-0.7,0.3c-0.4,0-0.6-0.3-0.6-0.9c0.1-0.6-0.1-0.9-0.6-0.9c-0.6,0-0.9,0.1-1,0.2c-0.1,0.2-0.2,0.2-0.3,0.2
		c0,0.6-0.1,0-0.2-1.8c0-0.3,0.4-0.5,1.3-0.7c-0.6-0.6-1.3-0.9-2.2-0.9c0.3-0.3,1.1-1,2.6-2c1.4-1,2.3-1.9,2.8-2.5
		c0,1,0.6,1.9,1.8,2.5v2c-0.6-0.3-1.9-0.1-3.8,0.4c0.4,0.9,1.7,1.3,3.8,1.3V148.9z M395.2,155.4c-1.2,0.6-1.9,1.5-2.2,2.7
		c-0.7-0.6-1.1-1.3-1.1-2c0-1.2,0.9-2.2,2.7-3.1C393.8,154.7,394,155.5,395.2,155.4z M397,158.7l-0.7,1.6l-0.9-0.2l0.9-1.6
		L397,158.7z M398.8,160.5l-0.7,1.6l-0.9-0.4l0.7-1.3L398.8,160.5z"/>
	<path class="st0" d="M589.6,180.5c-6.4,0.4-14.8,0.7-25.2,0.7c-0.1-0.6-0.4-1.3-0.9-2.2c-0.1,0-0.8,0.4-1.9,1.1
		c-1.1,0.7-2,1.1-2.6,1.1h-9.1c0.1,0-1.6-0.1-5.3-0.4c-3.7-0.3-6.5-0.4-8.3-0.2c-1.2-3.3-3-8.2-5.6-14.9c-0.6-1.5-1.6-2.5-3.1-3.1
		c-3.4-1.3-6.6-2-9.6-2c-0.4,0-0.7,0.2-0.7,0.4c0,0.1-0.3,0.2-0.9,0.2c-0.1,0-0.8-0.6-2-1.8c-0.6,0-0.9,0.6-0.9,1.8
		c-2.2,0-5.8,0.1-10.7,0.4c-4.3,0.4-7.5,0.6-9.6,0.4c-5.5-0.1-15.2,0-29.2,0.4c-1,1.5-1.9,2.9-2.5,4.2l-1.1,0.4c0,0.4,0,1,0,1.8
		c-1.3,3.1-3.2,7.4-5.6,12.7c-0.7,0.1-2.2,0.2-4.2,0.2c-0.4,0-1.3-0.1-2.6-0.3c-1.3-0.2-2.1-0.3-2.6-0.3c-0.6,0-1.4,0.2-2.5,0.6
		c-1,0.4-1.8,0.6-2.2,0.6c-0.6,0-1.3-0.2-2.1-0.6c-0.8-0.4-1.4-0.6-1.9-0.6c-0.7,0-2.2,1.6-4.2,4.7c-0.4-0.6-0.3-1.3,0.4-2
		c-1.2-1.3-2.5-2-3.8-2c-1.6,0-4.8,0.2-9.6,0.7c-1.6,0.3-2.8,0.8-3.6,1.6c0-0.7-0.2-1.3-0.7-1.8c-1,0-1.6,0.6-1.6,1.8
		c-0.6-1-2-1.6-4.2-1.8c-2.1,0-4.2,0-6.5,0c0.3-1,1.8-6,4.5-14.9c1.3-4.8,3.3-9.9,5.8-15.4c0.1-1.5,0.6-3.7,1.3-6.7
		c1.9-6.1,5.6-16.6,11.1-31.7c0.3-0.6,0.1-1.7-0.7-3.3c1.6-1.5,2.7-3,3.1-4.7c0.1-0.7-0.2-1.1-0.9-1.1c3.6-4,4.9-7.7,4-10.9
		c1.6-2.4,3.3-6.8,5.1-13.4c0.7-0.9,1.6-2.1,2.7-3.6c0-1.3,0.3-3.4,0.9-6.2c3.4-8.9,8.2-22.4,14.5-40.3c2.5-7.4,5.6-17,9.1-28.8
		h57.7c4,10,16.3,41.8,36.8,95.4c-0.1,0.4-0.6,1.2-1.3,2.2c-0.2,0.4,0.4,0.7,1.8,0.9c2.4,4,3.6,7.1,3.6,9.1c0.7,0.6,1.3,1.9,1.6,3.8
		c0.1,1.6,0.1,2.9-0.2,3.8c0.3,0.3,0.8,0.2,1.6-0.2c3.9,9.8,8.5,22.5,14,38.1c0.1,0.6,0,1.6-0.4,2.9c0.9,0.7,1.9,1.8,3.1,3.1
		C583,162.7,585.5,169.4,589.6,180.5z M421.5,123c-0.9-0.7-2.2-1.1-3.8-1.1c0.4-0.7,1.3-1.6,2.7-2.7
		C420.4,120.3,420.7,121.6,421.5,123z M420.2,91.2l-0.9,1.6l-0.7-0.2l0.7-1.6L420.2,91.2z M422.4,95.2c-0.1,0-0.6,0.2-1.2,0.7
		c-0.7,0.4-1.2,0.7-1.5,0.7c0.6,0,0.9-0.7,0.9-2C421.2,95,421.8,95.2,422.4,95.2z M427.1,188.3l-0.9,1.6l-0.7-0.2l0.7-1.6
		L427.1,188.3z M427.5,82.7l-0.7,1.3l-0.9-0.2l0.9-1.6L427.5,82.7z M429.3,170.3v-2.2h-0.9v2.2H429.3z M435.3,190.1l-1.1,1.3h-2.7
		c0-0.6,0.4-1.3,1.3-2.2L435.3,190.1z M434,183h-1.1v-1.6h1.1V183z M436,168.7l-0.2-0.9l-1.3,0.7v0.9L436,168.7z M448.2,132.6
		l-0.9-0.9l-0.7,0.4l0.9,0.9L448.2,132.6z M449.8,159.1V158h-1.6v1.1H449.8z M450.9,165.2c-0.7-1.5-1.6-2.2-2.7-2.2v2.2H450.9z
		 M450,108.8v-2.2h-1.1v2.2H450z M451.6,113.7c-0.6,0-1.3-0.4-2.2-1.3v2.7c0.3,0,0.8,0.2,1.6,0.7
		C450.9,114.8,451.1,114.1,451.6,113.7z M452.9,132.8v-2h-1.1v2H452.9z M455.4,172.5v-3.1h-2.7C453.6,171,454.5,172.1,455.4,172.5z
		 M455.8,124.6l-0.9-0.2l-0.7,1.3l0.7,0.4L455.8,124.6z M458.3,139.5v-1.1h-1.6v1.1H458.3z M459.6,148.7c-0.9-0.9-1.9-0.8-2.9,0.2
		c0.4,0,1.1,0.4,2,1.3C459,149.9,459.3,149.4,459.6,148.7z M458.9,161.6v-2h-2.2C457.6,160.5,458.3,161.2,458.9,161.6z M458.7,156.5
		v-2.2h-1.1v2.2H458.7z M466.7,138v-2h-1.1v2H466.7z M511.8,104.3l-1.1,1.1l-16.3-36.3l-16.3,45.7c0,0.3,0.2,0.7,0.7,1.3
		c4.6,0,9.6-0.1,14.9-0.2c5.4-0.1,7.9-0.2,7.6-0.2c1,0,2.8,0.6,5.3,1.8c0.3-0.4,1.6-1,4-1.8C510.7,112.9,511,109.1,511.8,104.3z
		 M491.7,141.5c0-0.4-0.1-1.1-0.3-1.9c-0.2-0.8-0.3-1.3-0.3-1.4c-0.6,0.6-0.9,1.9-0.9,3.8C490.4,142,491,141.8,491.7,141.5z
		 M494.8,39.9h-0.9l-0.7,2l0.9,0.2L494.8,39.9z M497.9,140.9c0-0.3-0.2-0.8-0.7-1.6l-1.3,1.6H497.9z M500.4,121.9
		c0-0.9-0.5-1.8-1.6-2.7c0,0.6,0,1.4,0,2.3c0,1,0,1.5,0,1.7C499.7,122.4,500.2,121.9,500.4,121.9z M501.7,141.8l-0.9-0.2l-0.7,1.6
		l0.9,0.2L501.7,141.8z M504.4,157.6l-2.2-0.7v0.9l2,0.7L504.4,157.6z M518.9,150c-1.3,0.2-2.2-0.5-2.7-1.9c-0.4-1.4-1-2.3-1.8-2.6
		c-0.9,1.8-0.9,3.3,0,4.5H518.9z M518.5,145.3l-0.9-0.2l-0.7,1.3l0.9,0.4L518.5,145.3z M518.5,138v-1.6h-0.9v1.6H518.5z
		 M521.3,145.3c0,0.3-0.4,0.4-1.3,0.4c0.4,0.6,0.7,1.3,0.7,2.2C521.1,147.4,521.3,146.5,521.3,145.3z M522.5,144l-0.9-0.9l-0.7,0.7
		l0.9,0.9L522.5,144z M525.1,155.1c0-0.1-0.1-0.4-0.3-0.9c-0.2-0.4-0.3-0.8-0.3-1.1c-0.2,0-0.9,0.7-2.2,2l1.3,1.3
		C523.7,156.5,524.2,156,525.1,155.1z M524.2,127.7V125h-1.1v2.7H524.2z M526.3,142.4v-1.1H524v1.1H526.3z M529.2,125v-0.9h-2.2v0.9
		H529.2z M529.6,113v-0.9h-2v0.9H529.6z M529.6,117.5c0-1-0.2-1.8-0.7-2.2c-0.3,0.3-0.6,0.7-0.9,1.3
		C528.3,117,528.9,117.3,529.6,117.5z M531.2,144.7l-0.9-0.9l-0.7,0.7l0.9,0.7L531.2,144.7z M531.4,31.4v-1.1h-1.6v1.1H531.4z
		 M536.5,150.2c0-0.1,0.1-0.8,0.2-2c0.1-0.7,0.1-1.3,0-1.8c-0.3-0.6-0.8-1-1.6-1.3c0,0.3-0.2,0.8-0.4,1.4c-0.3,0.7-0.4,1.2-0.4,1.7
		C534.3,149.6,535,150.2,536.5,150.2z M537,90.9v-2.7h-1.1v2.7H537z M537,94.3v-2h-1.1v2H537z M539.2,155.6l-0.9-0.2l-0.7,1.6
		l0.9,0.2L539.2,155.6z M546.3,167c-0.6,0-0.9,0.6-0.9,1.8l-1.3-0.7c-0.6,0-1.3,0.7-2,2.2c-1-0.3-2.4-0.4-4-0.4v2.2
		c0.7-0.7,1.6-1.1,2.5-1.1c0.4,0,0.7,0.2,0.8,0.6c0.1,0.4,0.3,0.6,0.8,0.6c0.7,0,1.6-0.7,2.7-2.2C545.8,168.4,546.3,167.4,546.3,167
		z M543,155.1l-1.6-1.3c-0.9,0.9-1.3,1.6-1.3,2.2l1.6,3.3C541.6,157.4,542.1,156,543,155.1z M545.4,118.1l-0.4-0.9l-1.3,0.7v0.9
		L545.4,118.1z M550.1,161.2h-0.9l-0.7,2l0.9,0.4L550.1,161.2z M553.5,163.6l-0.7-0.2l-0.9,1.6l0.9,0.2L553.5,163.6z M556.1,166.1
		c-1-0.6-2.4-0.4-4,0.7c0.4,0,0.9,0.2,1.3,0.7C554.2,167.5,555.1,167.1,556.1,166.1z M554.8,177.2v-2.7h-1.1v2.7H554.8z
		 M559.9,171.4l-0.7-0.7l-2,1.3l0.4,0.9L559.9,171.4z M562.8,173.9h-0.9l-0.7,2l0.7,0.2L562.8,173.9z M563.9,152.5l-0.7-2.2
		l-0.9,0.2l0.7,2H563.9z M564.6,158.9h-1.1l-0.7,2.7h1.1L564.6,158.9z M564.4,155.4v-1.6h-0.9v1.6H564.4z M566.4,169.2l-0.7-0.4
		c-0.3,0.3-0.6,0.8-0.9,1.6c0.3,0,0.7-0.2,1.2-0.6C566.6,169.4,566.7,169.2,566.4,169.2z M567.3,160.9l-0.7-0.4l-0.9,1.6l0.9,0.2
		L567.3,160.9z M566.8,173.6V171h-1.1v2.7H566.8z M571.3,169.4h-0.7l-0.7,1.8l0.7,0.4L571.3,169.4z M577.5,161.4l-2.2-0.7
		c0,0.3,0.2,0.8,0.7,1.6C576.4,162,576.9,161.7,577.5,161.4z M576.6,156.5v-1.6h-1.1v1.6H576.6z"/>
	<path class="st0" d="M706.4,132.2c-0.6,1.8-1.5,3-2.7,3.6c0.7,0.9,1.1,1.5,1.1,1.8c0,2.1-1,4.2-3.1,6.2c-0.2,1.5-0.3,3-0.4,4.5
		c-0.4,2.1-1.5,3.4-3.1,4c0.3,0.3,0.8,0.2,1.6-0.4c-1.5,5.8-2.2,8.8-2.2,8.9c-1.3,4.2-2.8,6.9-4.5,8.2l1.6,1.8c0-0.6-0.8,2-2.5,7.8
		c-3.1,2.1-5.4,3.1-6.9,3.1h-92.7v-51.5l0.7-0.4c0.6-0.6,0.4-1-0.7-1.3c0.1-0.4,0.4-0.6,0.7-0.6c0.3,0.1,0.6-0.1,0.9-0.6
		c-0.4-0.3-0.9-0.8-1.3-1.6c-0.3-0.6-0.2-1.6,0.4-2.9c-0.9-3-1.3-6.4-1.3-10.3c0-4.9,0.6-9.1,1.8-12.5c0.6,0,1.9-0.1,3.8-0.2
		c1.9-0.1,3.3-0.2,4-0.2c0.3-0.3,0.4-0.8,0.4-1.6c0-0.3-0.6-1.4-1.8-3.3c0.1-0.3,0.2-0.8,0.2-1.6c0.1-0.3,0-0.6-0.4-0.9
		c-0.3,0.1-0.7,0.5-1.1,1c-0.4,0.5-0.9,0.9-1.3,1.2c0-0.6,0.2-1.1,0.7-1.6c-1.9-2.7-3.3-4-4-4c-0.6,0-0.9,0.4-0.9,1.1
		c-0.6-1.8-0.3-3,0.9-3.8c-0.2-0.1-0.6-0.6-1.2-1.4c-0.7-0.8-1-1.5-1-2.1c0-2.2,0.6-4.3,1.8-6.2c0.1,0,0.4,0.2,0.9,0.7
		c0.4,0.4,0.8,0.7,1.1,0.7h0.7c-1.2-1.6-2.5-2.3-3.8-2l-1.8-75.1h20.1c-0.4,0.3-0.4,0.7,0,1.1c-0.9,0-0.4-0.2,1.6-0.7
		C617,1,626,0.6,639.3,0v61.3c-0.4-0.4-0.9-0.5-1.3-0.2c0.3,0.3,0.7,0.8,1.3,1.6c-0.1,9.1,0.1,22.2,0.9,39.5c-0.6,0.6-1.3,0.9-2,0.9
		c-0.2,0.1-0.2,0.7-0.2,1.8l0.9,0.9c0.1-0.1,0.3-0.5,0.6-1c0.2-0.5,0.4-0.9,0.6-1.2c-0.2,0.6-0.3,3.6-0.4,8.9c0,5.1,0,8,0,8.9
		c0.1,1.3,0.4,4.1,0.9,8.2c2.8,2.5,4.9,3.8,6.2,3.8L706.4,132.2z M595.4,8.2c0,0.3-0.4,0.4-1.3,0.4c0.3,0.3,0.5,0.7,0.7,1.3
		C595.1,9.7,595.4,9.1,595.4,8.2z M597.4,20.3l-0.2-0.9l-2.4,1.3v0.9L597.4,20.3z M595.8,61.3v-2.2h-0.9v2.2H595.8z M599.8,44.4v-2
		h-0.9v2H599.8z M600.7,101.4c-0.4,0-1,0.2-1.6,0.7c0.3,0.3,0.5,0.7,0.7,1.3C600.4,103,600.7,102.3,600.7,101.4z M600.9,51.3H600
		l-0.7,2.7h0.9L600.9,51.3z M602.3,22.5c0-1-0.2-1.8-0.7-2.2c-0.3,0.3-0.6,0.7-0.9,1.3C601.2,22.1,601.7,22.4,602.3,22.5z
		 M604,118.6l-0.4-0.9c-0.3-0.4-0.3-0.8,0-1.1c-0.7,0-1.1,0.4-1.1,1.3C602.8,117.9,603.3,118.1,604,118.6z M612.1,2.5l-0.7-0.2
		l-0.7,1.3l0.7,0.4L612.1,2.5z M612.1,59.7l-0.9-0.9l-0.4,0.7l0.7,0.9L612.1,59.7z M617.4,65.3c-0.2,0.3-0.5,0.7-1.1,1.2
		c-0.6,0.5-0.9,1-0.9,1.4c0.3,0.3,0.7,0.5,1.3,0.7C617.2,67.9,617.4,66.8,617.4,65.3z M620.1,9.6V7.4H619v2.2H620.1z M620.5,103
		h-0.7l-0.7,2l0.7,0.2L620.5,103z M622.3,93.2l-0.7-1.6l-0.9,0.2l0.7,1.3H622.3z M626.3,27v-2.2h-1.1V27H626.3z M631,92.3
		c0-0.3-0.1-0.8-0.3-1.5c-0.2-0.7-0.3-1.1-0.3-1.2c-0.6,0-0.9,0.7-0.9,2C629.9,91.6,630.4,91.8,631,92.3z M631.9,50.6V49h-1.1v1.6
		H631.9z M632.4,125.3v-1.6h-0.9v1.6H632.4z M633,92.7v-4.2h-1.1v4.2H633z M634.1,107l-0.9-0.2l-0.7,1.6l0.9,0.2L634.1,107z
		 M634.4,76.9c0-1-0.2-1.7-0.7-2c-0.6,0-0.9,0.5-0.9,1.6C633.2,76.5,633.8,76.6,634.4,76.9z M636.1,8.7V7.6h-2.2v1.1H636.1z
		 M635.7,85.1l-0.7-0.2l-0.7,1.3l0.7,0.4L635.7,85.1z M636.4,119.7v-1.6h-0.9v1.6H636.4z M638.1,99.4v-2H637v2H638.1z M639,114.3
		l-0.7-0.9l-0.7,0.7l0.9,0.7L639,114.3z M668.5,147.8v-1.6h-1.1v1.6H668.5z M678.5,170.7l-0.7-0.4l-0.9,1.6l0.9,0.2L678.5,170.7z
		 M687,160.7V158h-0.9v2.7H687z M694.3,165.2l-0.7-1.6l-0.9,0.2l0.7,1.3H694.3z M695.7,161.8v-2c-0.2,0-0.5,0.1-1,0.2
		c-0.5,0.1-0.9,0.2-1,0.2v2.2C694.1,162,694.8,161.8,695.7,161.8z M698.1,142.4l-0.7-0.2l-0.7,1.6l0.7,0.2L698.1,142.4z"/>
</g>
</svg>
