<svg width="25" height="25" viewBox="0 0 25 25"><path class="color" d="M2 16.99V9.047c0-.112.042-.22.123-.32a.384.384 0 0 1 .32-.152h11.93c.102 0 .2.05.296.15.09.103.14.21.14.322v7.943c0 .122-.05.225-.14.31a.44.44 0 0 1-.31.13H2.44a.427.427 0 0 1-.44-.44zm5.847 3.517v-.87c0-.1.038-.194.114-.28.08-.086.17-.13.27-.13h14.22c.13 0 .23.046.32.14.09.09.14.18.14.27v.87a.42.42 0 0 1-.14.332c-.09.08-.19.13-.31.13H8.23a.34.34 0 0 1-.274-.14.545.545 0 0 1-.107-.34zm0-14.108v-.92c0-.13.038-.23.114-.32a.35.35 0 0 1 .27-.13h14.22c.13 0 .23.04.32.13s.14.19.14.31v.92c0 .09-.04.18-.14.26-.09.08-.19.13-.31.13H8.23c-.1 0-.19-.05-.267-.13a.447.447 0 0 1-.11-.27zm8.497 7.09v-.9c0-.15.048-.27.144-.37a.477.477 0 0 1 .328-.14l5.624-.01c.12 0 .23.04.32.14.093.09.14.21.14.36v.9c0 .11-.047.21-.14.32-.09.1-.2.15-.32.15l-5.625.01c-.12 0-.23-.05-.327-.15a.467.467 0 0 1-.144-.33zm0-3.58v-.86c0-.11.048-.22.144-.32.097-.1.207-.16.328-.15l5.624-.01c.12 0 .23.05.32.15.092.1.14.21.14.32v.87c0 .13-.047.24-.14.32-.09.08-.2.12-.32.12l-5.625.01a.45.45 0 0 1-.334-.13.408.408 0 0 1-.13-.32zm0 7.04v-.9c0-.15.05-.27.146-.37a.474.474 0 0 1 .327-.14l5.624-.01c.13 0 .23.04.33.14.09.09.14.21.14.36v.89c0 .11-.04.21-.13.32-.09.1-.2.15-.32.15l-5.62.01c-.12 0-.23-.05-.32-.16a.485.485 0 0 1-.14-.32z" fill-rule="evenodd"></path></svg>